<svg xmlns="http://www.w3.org/2000/svg" xmlns:xlink="http://www.w3.org/1999/xlink" width="500" zoomAndPan="magnify" viewBox="0 0 375 374.999991" height="500" preserveAspectRatio="xMidYMid meet" version="1.0"><defs><g/><clipPath id="620eabe672"><path d="M 53 20 L 322 20 L 322 290 L 53 290 Z M 53 20 " clip-rule="nonzero"/></clipPath><clipPath id="f96a61ffcd"><path d="M 243.945312 -26.097656 L 367.347656 216.578125 L 131.355469 336.578125 L 7.953125 93.902344 Z M 243.945312 -26.097656 " clip-rule="nonzero"/></clipPath><clipPath id="93efdbd0b9"><path d="M 243.945312 -26.097656 L 367.347656 216.578125 L 131.355469 336.578125 L 7.953125 93.902344 Z M 243.945312 -26.097656 " clip-rule="nonzero"/></clipPath><clipPath id="9ab787ae1a"><path d="M 287.03125 68.261719 C 237.523438 11.640625 152.65625 4.632812 97.847656 52.636719 C 86.011719 63.003906 76.40625 75.339844 69.070312 89.179688 L 69.421875 89.363281 L 69.070312 89.179688 C 56.503906 112.882812 51.554688 139.808594 54.75 167.042969 C 58.019531 194.882812 69.632812 220.902344 88.335938 242.296875 C 137.796875 298.863281 222.578125 305.863281 277.332031 257.90625 C 332.140625 209.898438 336.542969 124.882812 287.03125 68.261719 Z M 83.601562 216.882812 C 85.699219 219.277344 87.527344 221.152344 88.90625 222.488281 C 98.089844 231.371094 110.773438 232.0625 124.207031 232.789062 C 139.71875 233.628906 157.304688 234.585938 172.429688 248.671875 C 185.234375 260.605469 197.816406 271.050781 212.03125 275.804688 C 197.617188 271.503906 184.933594 261.710938 172.453125 250.839844 C 157.40625 237.730469 140.207031 236.21875 125.03125 234.882812 C 111.417969 233.6875 98.554688 232.558594 89.257812 223.40625 C 80.96875 215.242188 73.171875 204.65625 67.214844 192.253906 C 72.59375 203.109375 78.792969 211.382812 83.601562 216.882812 Z M 77.730469 208.386719 C 79.609375 210.910156 81.425781 213.132812 83.085938 215.035156 C 85.417969 217.703125 87.449219 219.75 88.941406 221.164062 C 97.898438 229.667969 110.347656 229.921875 123.527344 230.191406 C 139.445312 230.511719 157.480469 230.878906 172.769531 246.078125 C 185.324219 258.5625 196.972656 269.382812 210.855469 274.785156 C 197.257812 269.871094 185.136719 259.769531 172.796875 248.273438 C 157.527344 234.046875 139.835938 233.085938 124.230469 232.242188 C 110.902344 231.519531 98.320312 230.839844 89.28125 222.09375 C 87.75 220.609375 83.089844 215.882812 77.730469 208.386719 Z M 172.105469 253.40625 C 157.335938 241.40625 140.664062 239.382812 125.960938 237.597656 C 112.007812 235.90625 98.828125 234.304688 89.238281 224.714844 C 81.773438 217.25 74.730469 207.792969 69.046875 196.847656 C 74.144531 206.398438 79.734375 213.730469 84.074219 218.699219 C 85.953125 220.847656 87.597656 222.550781 88.867188 223.800781 C 98.304688 233.09375 111.265625 234.234375 124.984375 235.441406 C 140.070312 236.769531 157.175781 238.273438 172.085938 251.257812 C 184.90625 262.429688 197.941406 272.464844 212.832031 276.644531 C 197.714844 272.921875 184.5625 263.523438 172.105469 253.402344 Z M 213.320312 277.382812 C 197.597656 274.207031 184.046875 265.261719 171.753906 255.972656 C 157.335938 245.074219 141.9375 242.699219 127.042969 240.402344 C 112.695312 238.191406 99.140625 236.101562 89.214844 226.027344 C 81.765625 218.46875 74.742188 208.941406 69.066406 197.945312 C 74.328125 207.882812 80.109375 215.460938 84.511719 220.496094 C 86.183594 222.410156 87.664062 223.960938 88.832031 225.128906 C 98.566406 234.863281 111.839844 236.472656 125.894531 238.179688 C 141.238281 240.039062 157.105469 241.964844 171.742188 253.855469 C 184.4375 264.175781 197.855469 273.742188 213.320312 277.386719 Z M 84.667969 222.003906 C 86.007812 223.535156 87.386719 225.019531 88.789062 226.445312 C 98.855469 236.65625 112.503906 238.765625 126.953125 240.992188 C 141.773438 243.277344 157.097656 245.640625 171.394531 256.449219 C 182.894531 265.136719 196.570312 274.257812 212.113281 277.769531 C 197.332031 274.960938 183.976562 267.351562 171.402344 258.539062 C 157.414062 248.734375 142.625 245.980469 128.320312 243.316406 C 113.5 240.554688 99.5 237.949219 89.1875 227.339844 C 81.023438 218.953125 73.351562 208.226562 67.425781 195.777344 C 72.089844 205.371094 77.953125 214.332031 84.667969 222.007812 Z M 85.035156 223.734375 C 86.246094 225.117188 87.488281 226.464844 88.75 227.765625 C 99.203125 238.511719 113.296875 241.136719 128.214844 243.917969 C 142.453125 246.566406 157.175781 249.3125 171.058594 259.039062 C 183.140625 267.507812 199.375 277.472656 217.8125 279.347656 C 218.652344 279.433594 219.492188 279.480469 220.332031 279.53125 C 202.152344 278.902344 186.074219 270.824219 171.058594 261.105469 C 157.597656 252.386719 143.492188 249.324219 129.855469 246.363281 C 114.472656 243.019531 99.9375 239.863281 89.167969 228.648438 C 81.195312 220.347656 73.699219 209.816406 67.820312 197.648438 C 72.503906 207.179688 78.351562 216.082031 85.039062 223.730469 Z M 86.542969 232.117188 C 87.210938 232.875 87.882812 233.621094 88.5625 234.367188 C 102.488281 249.503906 120.941406 255.367188 140.480469 261.570312 C 149.96875 264.585938 159.789062 267.703125 169.363281 272.003906 C 188.699219 280.683594 207.03125 284 224.609375 281.941406 C 207.078125 284.433594 188.722656 281.757812 169.292969 273.9375 C 161.511719 270.808594 153.578125 268.1875 145.90625 265.652344 C 124.476562 258.570312 104.234375 251.882812 89.046875 235.214844 C 85.582031 231.417969 82.289062 227.273438 79.207031 222.851562 C 81.515625 226.066406 83.957031 229.164062 86.539062 232.121094 Z M 78.574219 220.691406 C 80.96875 224.078125 83.527344 227.328125 86.230469 230.417969 C 87.003906 231.308594 87.796875 232.1875 88.597656 233.046875 C 101.488281 246.925781 118.589844 252.015625 136.695312 257.414062 C 147.558594 260.648438 158.792969 263.996094 169.703125 269.410156 C 186.074219 277.542969 201.503906 281.671875 216.371094 281.796875 C 201.410156 282.132812 185.886719 278.660156 169.648438 271.375 C 160.03125 267.058594 150.195312 263.933594 140.691406 260.914062 C 121.242188 254.738281 102.871094 248.90625 89.070312 233.902344 C 85.359375 229.867188 81.84375 225.449219 78.570312 220.699219 Z M 85.234375 225.289062 C 86.371094 226.585938 87.527344 227.851562 88.710938 229.085938 C 99.617188 240.441406 114.238281 243.617188 129.71875 246.980469 C 143.304688 249.929688 157.351562 252.980469 170.714844 261.632812 C 188.792969 273.335938 203.492188 278.992188 218.367188 279.964844 C 200.53125 279.335938 184.773438 272.050781 170.710938 263.671875 C 157.902344 256.039062 144.582031 252.757812 131.707031 249.582031 C 115.632812 245.621094 100.457031 241.875 89.144531 229.964844 C 83.8125 224.347656 78.699219 217.726562 74.132812 210.3125 C 77.46875 215.632812 81.183594 220.65625 85.238281 225.292969 Z M 85.582031 227.007812 C 86.589844 228.164062 87.621094 229.300781 88.675781 230.40625 C 100.113281 242.457031 115.382812 246.222656 131.546875 250.210938 C 144.378906 253.371094 157.648438 256.644531 170.375 264.226562 C 187.933594 274.6875 203.078125 279.878906 217.902344 280.53125 C 199.71875 280.292969 183.785156 273.566406 170.355469 266.234375 C 158.363281 259.695312 145.972656 256.304688 133.992188 253.023438 C 117.066406 248.390625 101.078125 244.015625 89.121094 231.273438 C 84.5625 226.425781 80.289062 220.984375 76.417969 215.050781 C 79.242188 219.25 82.296875 223.253906 85.582031 227.007812 Z M 85.910156 228.714844 C 86.800781 229.734375 87.710938 230.738281 88.636719 231.722656 C 100.722656 244.597656 116.796875 249 133.816406 253.65625 C 145.761719 256.929688 158.113281 260.3125 170.042969 266.816406 C 182.492188 273.609375 197.078125 279.894531 213.605469 281.035156 C 199.6875 280.453125 185.253906 276.375 170.003906 268.804688 C 159.042969 263.359375 147.78125 260.007812 136.890625 256.757812 C 118.878906 251.394531 101.867188 246.324219 89.101562 232.582031 C 85.117188 228.296875 81.359375 223.546875 77.890625 218.429688 C 80.394531 222.015625 83.066406 225.460938 85.914062 228.714844 Z M 86.851562 233.808594 C 87.402344 234.441406 87.960938 235.066406 88.523438 235.683594 C 103.839844 252.492188 124.167969 259.207031 145.683594 266.320312 C 153.347656 268.851562 161.269531 271.46875 169.03125 274.59375 C 185.617188 281.265625 201.429688 284.207031 216.617188 283.417969 C 201.328125 284.667969 185.410156 282.378906 168.941406 276.496094 C 163.824219 274.671875 158.617188 272.941406 153.582031 271.269531 C 129.222656 263.183594 106.21875 255.546875 89.03125 236.515625 C 84.351562 231.339844 80.160156 225.835938 76.441406 220.089844 C 79.613281 224.90625 83.089844 229.5 86.855469 233.808594 Z M 87.152344 235.507812 C 87.59375 236.007812 88.039062 236.511719 88.488281 237.007812 C 105.808594 256.179688 128.902344 263.847656 153.351562 271.964844 C 158.382812 273.636719 163.585938 275.363281 168.699219 277.183594 C 185.304688 283.113281 201.347656 285.421875 216.761719 284.148438 C 201.242188 285.886719 185.082031 284.222656 168.585938 279.066406 L 166.113281 278.296875 C 138.226562 269.59375 109.386719 260.589844 89.003906 237.832031 C 88.660156 237.445312 88.320312 237.0625 87.976562 236.671875 C 84.359375 232.535156 81.046875 228.199219 78.015625 223.714844 C 80.84375 227.824219 83.890625 231.777344 87.15625 235.511719 Z M 87.398438 237.140625 C 87.746094 237.539062 88.097656 237.9375 88.449219 238.328125 C 108.96875 261.246094 137.90625 270.277344 165.890625 279.011719 L 168.363281 279.78125 C 184.957031 284.96875 201.214844 286.644531 216.828125 284.898438 C 201.101562 287.117188 184.722656 286.078125 168.222656 281.636719 C 141.25 274.378906 110.742188 263.652344 88.976562 239.144531 C 88.746094 238.882812 88.523438 238.628906 88.296875 238.371094 C 85.839844 235.5625 83.527344 232.664062 81.34375 229.695312 C 83.265625 232.238281 85.285156 234.722656 87.394531 237.136719 Z M 88.933594 241.765625 C 86.503906 238.984375 84.199219 236.117188 82.023438 233.179688 C 83.964844 235.738281 85.996094 238.246094 88.132812 240.683594 L 88.378906 240.96875 C 107.441406 262.554688 134.128906 277.355469 167.703125 284.960938 C 183.535156 288.550781 199.195312 289.203125 214.25 287.050781 C 169.675781 294.699219 121.574219 279.089844 88.941406 241.769531 Z M 167.867188 284.203125 C 134.457031 276.636719 107.90625 261.914062 88.957031 240.457031 L 88.71875 240.183594 C 86.347656 237.46875 84.101562 234.675781 81.972656 231.816406 C 83.804688 234.21875 85.710938 236.566406 87.710938 238.855469 C 87.945312 239.121094 88.175781 239.382812 88.414062 239.648438 C 110.3125 264.308594 140.949219 275.085938 168.027344 282.371094 C 187.28125 287.554688 206.367188 288.140625 224.460938 284.335938 C 206.402344 288.566406 187.265625 288.601562 167.867188 284.203125 Z M 275.582031 258.347656 C 275.367188 258.535156 275.148438 258.714844 274.929688 258.894531 C 274.691406 259.09375 274.449219 259.292969 274.210938 259.488281 C 274.007812 259.652344 273.808594 259.816406 273.605469 259.976562 C 273.394531 260.140625 273.1875 260.3125 272.980469 260.472656 C 272.808594 260.609375 272.632812 260.734375 272.464844 260.867188 C 272.230469 261.046875 271.988281 261.222656 271.753906 261.402344 C 271.71875 261.429688 271.683594 261.457031 271.648438 261.484375 C 271.164062 261.84375 270.679688 262.195312 270.195312 262.542969 C 270.171875 262.558594 270.148438 262.574219 270.125 262.589844 C 269.394531 263.105469 268.664062 263.609375 267.929688 264.105469 C 267.796875 264.195312 267.660156 264.289062 267.523438 264.378906 C 267.132812 264.636719 266.734375 264.917969 266.339844 265.171875 C 266.234375 265.238281 266.132812 265.296875 266.027344 265.367188 C 264.976562 266.039062 263.929688 266.671875 262.890625 267.289062 C 262.527344 267.496094 262.171875 267.710938 261.816406 267.914062 C 261.050781 268.355469 260.292969 268.769531 259.539062 269.179688 C 258.957031 269.492188 258.378906 269.796875 257.800781 270.09375 C 257.726562 270.132812 257.65625 270.167969 257.582031 270.207031 C 257.410156 270.292969 257.246094 270.371094 257.078125 270.457031 C 217.609375 289.910156 194.136719 266.574219 173.148438 245.703125 C 157.710938 230.351562 139.554688 229.984375 123.539062 229.65625 C 110.464844 229.394531 98.117188 229.140625 89.308594 220.78125 C 84.972656 216.664062 55.636719 187.09375 56.105469 141.789062 C 56.210938 136.003906 56.765625 130.070312 57.859375 124.007812 C 57.902344 123.769531 57.945312 123.53125 57.992188 123.289062 C 58.179688 122.285156 58.398438 121.265625 58.613281 120.253906 C 58.824219 119.296875 59.03125 118.335938 59.269531 117.375 C 59.367188 116.972656 59.472656 116.566406 59.574219 116.164062 C 59.941406 114.714844 60.328125 113.265625 60.753906 111.816406 C 60.753906 111.816406 60.753906 111.816406 60.753906 111.8125 C 61.222656 110.21875 61.734375 108.621094 62.277344 107.027344 C 62.34375 106.84375 62.402344 106.660156 62.46875 106.480469 C 62.914062 105.191406 63.386719 103.902344 63.882812 102.613281 C 64.101562 102.046875 64.320312 101.480469 64.546875 100.914062 C 64.777344 100.335938 65.023438 99.757812 65.265625 99.179688 C 65.371094 98.933594 65.472656 98.6875 65.574219 98.441406 C 65.621094 98.335938 65.664062 98.226562 65.710938 98.117188 C 66.039062 97.355469 66.367188 96.589844 66.710938 95.832031 C 66.753906 95.742188 66.789062 95.648438 66.832031 95.550781 C 66.859375 95.496094 66.882812 95.445312 66.910156 95.390625 C 67.015625 95.167969 67.121094 94.941406 67.226562 94.71875 C 67.488281 94.152344 67.765625 93.585938 68.039062 93.019531 C 68.097656 92.894531 68.160156 92.769531 68.222656 92.644531 C 68.339844 92.40625 68.457031 92.167969 68.578125 91.925781 C 68.671875 91.742188 68.761719 91.558594 68.855469 91.375 C 69.160156 90.765625 69.457031 90.152344 69.773438 89.550781 C 77.050781 75.824219 86.808594 63.714844 98.546875 53.433594 C 152.917969 5.8125 237.113281 12.777344 286.238281 68.957031 C 335.363281 125.136719 331.183594 209.6875 276.8125 257.308594 C 276.410156 257.664062 275.992188 258.003906 275.585938 258.355469 Z M 275.582031 258.347656 " clip-rule="nonzero"/></clipPath><linearGradient x1="-153.361151" gradientTransform="matrix(0.176774, 0.347641, -0.34702, 0.176459, 243.908159, -26.079399)" y1="339.92001" x2="866.338023" gradientUnits="userSpaceOnUse" y2="339.92001" id="5125426984"><stop stop-opacity="1" stop-color="rgb(100%, 100%, 100%)" offset="0"/><stop stop-opacity="1" stop-color="rgb(100%, 100%, 100%)" offset="0.0625"/><stop stop-opacity="1" stop-color="rgb(100%, 100%, 100%)" offset="0.078125"/><stop stop-opacity="1" stop-color="rgb(100%, 100%, 100%)" offset="0.0859375"/><stop stop-opacity="1" stop-color="rgb(99.432373%, 99.411011%, 99.603271%)" offset="0.0898438"/><stop stop-opacity="1" stop-color="rgb(98.866272%, 98.822021%, 99.206543%)" offset="0.09375"/><stop stop-opacity="1" stop-color="rgb(97.099304%, 96.987915%, 97.972107%)" offset="0.0976562"/><stop stop-opacity="1" stop-color="rgb(95.332336%, 95.155334%, 96.737671%)" offset="0.101562"/><stop stop-opacity="1" stop-color="rgb(93.565369%, 93.321228%, 95.503235%)" offset="0.105469"/><stop stop-opacity="1" stop-color="rgb(91.798401%, 91.487122%, 94.268799%)" offset="0.109375"/><stop stop-opacity="1" stop-color="rgb(90.031433%, 89.653015%, 93.032837%)" offset="0.113281"/><stop stop-opacity="1" stop-color="rgb(88.264465%, 87.820435%, 91.798401%)" offset="0.117188"/><stop stop-opacity="1" stop-color="rgb(86.497498%, 85.986328%, 90.563965%)" offset="0.121094"/><stop stop-opacity="1" stop-color="rgb(84.73053%, 84.152222%, 89.329529%)" offset="0.125"/><stop stop-opacity="1" stop-color="rgb(82.963562%, 82.318115%, 88.095093%)" offset="0.128906"/><stop stop-opacity="1" stop-color="rgb(81.196594%, 80.485535%, 86.860657%)" offset="0.132812"/><stop stop-opacity="1" stop-color="rgb(79.429626%, 78.651428%, 85.624695%)" offset="0.136719"/><stop stop-opacity="1" stop-color="rgb(77.662659%, 76.817322%, 84.390259%)" offset="0.140625"/><stop stop-opacity="1" stop-color="rgb(75.895691%, 74.983215%, 83.155823%)" offset="0.144531"/><stop stop-opacity="1" stop-color="rgb(74.128723%, 73.150635%, 81.921387%)" offset="0.148438"/><stop stop-opacity="1" stop-color="rgb(72.361755%, 71.316528%, 80.685425%)" offset="0.152344"/><stop stop-opacity="1" stop-color="rgb(70.594788%, 69.482422%, 79.450989%)" offset="0.15625"/><stop stop-opacity="1" stop-color="rgb(68.82782%, 67.648315%, 78.216553%)" offset="0.160156"/><stop stop-opacity="1" stop-color="rgb(67.060852%, 65.815735%, 76.982117%)" offset="0.164062"/><stop stop-opacity="1" stop-color="rgb(65.293884%, 63.981628%, 75.747681%)" offset="0.167969"/><stop stop-opacity="1" stop-color="rgb(63.526917%, 62.147522%, 74.513245%)" offset="0.171875"/><stop stop-opacity="1" stop-color="rgb(61.759949%, 60.313416%, 73.277283%)" offset="0.175781"/><stop stop-opacity="1" stop-color="rgb(59.992981%, 58.480835%, 72.042847%)" offset="0.179688"/><stop stop-opacity="1" stop-color="rgb(58.226013%, 56.646729%, 70.808411%)" offset="0.183594"/><stop stop-opacity="1" stop-color="rgb(56.459045%, 54.812622%, 69.573975%)" offset="0.1875"/><stop stop-opacity="1" stop-color="rgb(54.692078%, 52.978516%, 68.339539%)" offset="0.191406"/><stop stop-opacity="1" stop-color="rgb(52.92511%, 51.144409%, 67.105103%)" offset="0.195312"/><stop stop-opacity="1" stop-color="rgb(51.158142%, 49.310303%, 65.869141%)" offset="0.199219"/><stop stop-opacity="1" stop-color="rgb(49.391174%, 47.477722%, 64.634705%)" offset="0.203125"/><stop stop-opacity="1" stop-color="rgb(47.624207%, 45.643616%, 63.400269%)" offset="0.207031"/><stop stop-opacity="1" stop-color="rgb(45.857239%, 43.809509%, 62.165833%)" offset="0.210938"/><stop stop-opacity="1" stop-color="rgb(44.090271%, 41.975403%, 60.929871%)" offset="0.214844"/><stop stop-opacity="1" stop-color="rgb(42.323303%, 40.142822%, 59.695435%)" offset="0.21875"/><stop stop-opacity="1" stop-color="rgb(40.556335%, 38.308716%, 58.460999%)" offset="0.222656"/><stop stop-opacity="1" stop-color="rgb(38.789368%, 36.474609%, 57.226562%)" offset="0.226562"/><stop stop-opacity="1" stop-color="rgb(37.0224%, 34.640503%, 55.992126%)" offset="0.230469"/><stop stop-opacity="1" stop-color="rgb(35.255432%, 32.807922%, 54.75769%)" offset="0.234375"/><stop stop-opacity="1" stop-color="rgb(33.488464%, 30.973816%, 53.521729%)" offset="0.238281"/><stop stop-opacity="1" stop-color="rgb(31.721497%, 29.139709%, 52.287292%)" offset="0.242188"/><stop stop-opacity="1" stop-color="rgb(29.954529%, 27.305603%, 51.052856%)" offset="0.246094"/><stop stop-opacity="1" stop-color="rgb(28.187561%, 25.473022%, 49.81842%)" offset="0.25"/><stop stop-opacity="1" stop-color="rgb(26.420593%, 23.638916%, 48.583984%)" offset="0.253906"/><stop stop-opacity="1" stop-color="rgb(24.653625%, 21.80481%, 47.349548%)" offset="0.257813"/><stop stop-opacity="1" stop-color="rgb(22.886658%, 19.970703%, 46.113586%)" offset="0.261719"/><stop stop-opacity="1" stop-color="rgb(21.11969%, 18.138123%, 44.87915%)" offset="0.265625"/><stop stop-opacity="1" stop-color="rgb(19.75708%, 16.723633%, 43.927002%)" offset="0.269531"/><stop stop-opacity="1" stop-color="rgb(18.39447%, 15.309143%, 42.974854%)" offset="0.273438"/><stop stop-opacity="1" stop-color="rgb(20.080566%, 17.059326%, 44.152832%)" offset="0.277344"/><stop stop-opacity="1" stop-color="rgb(21.766663%, 18.809509%, 45.332336%)" offset="0.28125"/><stop stop-opacity="1" stop-color="rgb(23.452759%, 20.559692%, 46.510315%)" offset="0.285156"/><stop stop-opacity="1" stop-color="rgb(25.140381%, 22.309875%, 47.689819%)" offset="0.289062"/><stop stop-opacity="1" stop-color="rgb(26.826477%, 24.060059%, 48.867798%)" offset="0.292969"/><stop stop-opacity="1" stop-color="rgb(28.514099%, 25.811768%, 50.047302%)" offset="0.296875"/><stop stop-opacity="1" stop-color="rgb(30.200195%, 27.561951%, 51.225281%)" offset="0.300781"/><stop stop-opacity="1" stop-color="rgb(31.887817%, 29.312134%, 52.403259%)" offset="0.304688"/><stop stop-opacity="1" stop-color="rgb(33.573914%, 31.062317%, 53.581238%)" offset="0.308594"/><stop stop-opacity="1" stop-color="rgb(35.26001%, 32.8125%, 54.760742%)" offset="0.3125"/><stop stop-opacity="1" stop-color="rgb(36.946106%, 34.562683%, 55.938721%)" offset="0.316406"/><stop stop-opacity="1" stop-color="rgb(38.633728%, 36.314392%, 57.118225%)" offset="0.320313"/><stop stop-opacity="1" stop-color="rgb(40.319824%, 38.064575%, 58.296204%)" offset="0.324219"/><stop stop-opacity="1" stop-color="rgb(42.007446%, 39.814758%, 59.475708%)" offset="0.328125"/><stop stop-opacity="1" stop-color="rgb(43.693542%, 41.564941%, 60.653687%)" offset="0.332031"/><stop stop-opacity="1" stop-color="rgb(45.379639%, 43.315125%, 61.833191%)" offset="0.335938"/><stop stop-opacity="1" stop-color="rgb(47.065735%, 45.065308%, 63.011169%)" offset="0.339844"/><stop stop-opacity="1" stop-color="rgb(48.753357%, 46.815491%, 64.189148%)" offset="0.34375"/><stop stop-opacity="1" stop-color="rgb(50.439453%, 48.565674%, 65.367126%)" offset="0.347656"/><stop stop-opacity="1" stop-color="rgb(52.127075%, 50.317383%, 66.546631%)" offset="0.351562"/><stop stop-opacity="1" stop-color="rgb(53.813171%, 52.067566%, 67.724609%)" offset="0.355469"/><stop stop-opacity="1" stop-color="rgb(55.500793%, 53.817749%, 68.904114%)" offset="0.359375"/><stop stop-opacity="1" stop-color="rgb(57.18689%, 55.567932%, 70.082092%)" offset="0.363281"/><stop stop-opacity="1" stop-color="rgb(58.872986%, 57.318115%, 71.261597%)" offset="0.367188"/><stop stop-opacity="1" stop-color="rgb(60.559082%, 59.068298%, 72.439575%)" offset="0.371094"/><stop stop-opacity="1" stop-color="rgb(62.246704%, 60.820007%, 73.61908%)" offset="0.375"/><stop stop-opacity="1" stop-color="rgb(63.9328%, 62.57019%, 74.797058%)" offset="0.378906"/><stop stop-opacity="1" stop-color="rgb(65.620422%, 64.320374%, 75.975037%)" offset="0.382813"/><stop stop-opacity="1" stop-color="rgb(67.306519%, 66.070557%, 77.153015%)" offset="0.386719"/><stop stop-opacity="1" stop-color="rgb(68.992615%, 67.82074%, 78.33252%)" offset="0.390625"/><stop stop-opacity="1" stop-color="rgb(70.678711%, 69.570923%, 79.510498%)" offset="0.394531"/><stop stop-opacity="1" stop-color="rgb(72.366333%, 71.321106%, 80.690002%)" offset="0.398438"/><stop stop-opacity="1" stop-color="rgb(74.052429%, 73.071289%, 81.867981%)" offset="0.402344"/><stop stop-opacity="1" stop-color="rgb(75.740051%, 74.822998%, 83.047485%)" offset="0.40625"/><stop stop-opacity="1" stop-color="rgb(77.426147%, 76.573181%, 84.225464%)" offset="0.410156"/><stop stop-opacity="1" stop-color="rgb(79.11377%, 78.323364%, 85.404968%)" offset="0.414063"/><stop stop-opacity="1" stop-color="rgb(80.799866%, 80.073547%, 86.582947%)" offset="0.417969"/><stop stop-opacity="1" stop-color="rgb(82.485962%, 81.82373%, 87.760925%)" offset="0.421875"/><stop stop-opacity="1" stop-color="rgb(84.172058%, 83.573914%, 88.938904%)" offset="0.425781"/><stop stop-opacity="1" stop-color="rgb(85.85968%, 85.325623%, 90.118408%)" offset="0.429688"/><stop stop-opacity="1" stop-color="rgb(87.545776%, 87.075806%, 91.296387%)" offset="0.433594"/><stop stop-opacity="1" stop-color="rgb(89.233398%, 88.825989%, 92.475891%)" offset="0.4375"/><stop stop-opacity="1" stop-color="rgb(90.919495%, 90.576172%, 93.65387%)" offset="0.441406"/><stop stop-opacity="1" stop-color="rgb(92.605591%, 92.326355%, 94.833374%)" offset="0.445313"/><stop stop-opacity="1" stop-color="rgb(94.291687%, 94.076538%, 96.011353%)" offset="0.449219"/><stop stop-opacity="1" stop-color="rgb(95.979309%, 95.828247%, 97.190857%)" offset="0.453125"/><stop stop-opacity="1" stop-color="rgb(97.665405%, 97.57843%, 98.368835%)" offset="0.457031"/><stop stop-opacity="1" stop-color="rgb(99.353027%, 99.328613%, 99.546814%)" offset="0.460938"/><stop stop-opacity="1" stop-color="rgb(98.176575%, 98.106384%, 98.724365%)" offset="0.464844"/><stop stop-opacity="1" stop-color="rgb(97.000122%, 96.885681%, 97.903442%)" offset="0.46875"/><stop stop-opacity="1" stop-color="rgb(95.144653%, 94.960022%, 96.606445%)" offset="0.472656"/><stop stop-opacity="1" stop-color="rgb(93.289185%, 93.035889%, 95.310974%)" offset="0.476562"/><stop stop-opacity="1" stop-color="rgb(91.433716%, 91.110229%, 94.013977%)" offset="0.480469"/><stop stop-opacity="1" stop-color="rgb(89.578247%, 89.18457%, 92.71698%)" offset="0.484375"/><stop stop-opacity="1" stop-color="rgb(87.722778%, 87.258911%, 91.419983%)" offset="0.488281"/><stop stop-opacity="1" stop-color="rgb(85.86731%, 85.333252%, 90.124512%)" offset="0.492188"/><stop stop-opacity="1" stop-color="rgb(84.011841%, 83.407593%, 88.827515%)" offset="0.496094"/><stop stop-opacity="1" stop-color="rgb(82.157898%, 81.483459%, 87.532043%)" offset="0.5"/><stop stop-opacity="1" stop-color="rgb(80.302429%, 79.5578%, 86.235046%)" offset="0.503906"/><stop stop-opacity="1" stop-color="rgb(78.44696%, 77.632141%, 84.938049%)" offset="0.507812"/><stop stop-opacity="1" stop-color="rgb(76.591492%, 75.706482%, 83.641052%)" offset="0.511719"/><stop stop-opacity="1" stop-color="rgb(74.736023%, 73.780823%, 82.345581%)" offset="0.515625"/><stop stop-opacity="1" stop-color="rgb(72.880554%, 71.855164%, 81.048584%)" offset="0.519531"/><stop stop-opacity="1" stop-color="rgb(71.025085%, 69.929504%, 79.753113%)" offset="0.523438"/><stop stop-opacity="1" stop-color="rgb(69.169617%, 68.003845%, 78.456116%)" offset="0.527344"/><stop stop-opacity="1" stop-color="rgb(67.315674%, 66.079712%, 77.160645%)" offset="0.53125"/><stop stop-opacity="1" stop-color="rgb(65.460205%, 64.154053%, 75.863647%)" offset="0.535156"/><stop stop-opacity="1" stop-color="rgb(63.604736%, 62.228394%, 74.56665%)" offset="0.539062"/><stop stop-opacity="1" stop-color="rgb(61.749268%, 60.302734%, 73.269653%)" offset="0.542969"/><stop stop-opacity="1" stop-color="rgb(59.893799%, 58.377075%, 71.974182%)" offset="0.546875"/><stop stop-opacity="1" stop-color="rgb(58.03833%, 56.451416%, 70.677185%)" offset="0.550781"/><stop stop-opacity="1" stop-color="rgb(56.182861%, 54.527283%, 69.381714%)" offset="0.554688"/><stop stop-opacity="1" stop-color="rgb(54.327393%, 52.601624%, 68.084717%)" offset="0.558594"/><stop stop-opacity="1" stop-color="rgb(52.471924%, 50.675964%, 66.78772%)" offset="0.5625"/><stop stop-opacity="1" stop-color="rgb(50.616455%, 48.750305%, 65.490723%)" offset="0.566406"/><stop stop-opacity="1" stop-color="rgb(48.762512%, 46.824646%, 64.195251%)" offset="0.570312"/><stop stop-opacity="1" stop-color="rgb(46.907043%, 44.898987%, 62.898254%)" offset="0.574219"/><stop stop-opacity="1" stop-color="rgb(45.051575%, 42.973328%, 61.602783%)" offset="0.578125"/><stop stop-opacity="1" stop-color="rgb(43.196106%, 41.047668%, 60.305786%)" offset="0.582031"/><stop stop-opacity="1" stop-color="rgb(41.340637%, 39.123535%, 59.010315%)" offset="0.585938"/><stop stop-opacity="1" stop-color="rgb(39.485168%, 37.197876%, 57.713318%)" offset="0.589844"/><stop stop-opacity="1" stop-color="rgb(37.6297%, 35.272217%, 56.416321%)" offset="0.59375"/><stop stop-opacity="1" stop-color="rgb(35.774231%, 33.346558%, 55.119324%)" offset="0.597656"/><stop stop-opacity="1" stop-color="rgb(33.918762%, 31.420898%, 53.823853%)" offset="0.601562"/><stop stop-opacity="1" stop-color="rgb(32.063293%, 29.495239%, 52.526855%)" offset="0.605469"/><stop stop-opacity="1" stop-color="rgb(30.209351%, 27.571106%, 51.231384%)" offset="0.609375"/><stop stop-opacity="1" stop-color="rgb(28.353882%, 25.645447%, 49.934387%)" offset="0.613281"/><stop stop-opacity="1" stop-color="rgb(26.498413%, 23.719788%, 48.638916%)" offset="0.617188"/><stop stop-opacity="1" stop-color="rgb(24.642944%, 21.794128%, 47.341919%)" offset="0.621094"/><stop stop-opacity="1" stop-color="rgb(22.787476%, 19.868469%, 46.044922%)" offset="0.625"/><stop stop-opacity="1" stop-color="rgb(20.932007%, 17.94281%, 44.747925%)" offset="0.628906"/><stop stop-opacity="1" stop-color="rgb(19.076538%, 16.017151%, 43.452454%)" offset="0.632812"/><stop stop-opacity="1" stop-color="rgb(20.08667%, 17.06543%, 44.15741%)" offset="0.636719"/><stop stop-opacity="1" stop-color="rgb(21.096802%, 18.113708%, 44.863892%)" offset="0.640625"/><stop stop-opacity="1" stop-color="rgb(23.278809%, 20.378113%, 46.388245%)" offset="0.644531"/><stop stop-opacity="1" stop-color="rgb(25.462341%, 22.644043%, 47.914124%)" offset="0.648438"/><stop stop-opacity="1" stop-color="rgb(27.644348%, 24.908447%, 49.438477%)" offset="0.652344"/><stop stop-opacity="1" stop-color="rgb(29.827881%, 27.174377%, 50.964355%)" offset="0.65625"/><stop stop-opacity="1" stop-color="rgb(32.009888%, 29.438782%, 52.488708%)" offset="0.660156"/><stop stop-opacity="1" stop-color="rgb(34.19342%, 31.704712%, 54.014587%)" offset="0.664062"/><stop stop-opacity="1" stop-color="rgb(36.375427%, 33.969116%, 55.53894%)" offset="0.667969"/><stop stop-opacity="1" stop-color="rgb(38.55896%, 36.235046%, 57.064819%)" offset="0.671875"/><stop stop-opacity="1" stop-color="rgb(40.740967%, 38.499451%, 58.590698%)" offset="0.675781"/><stop stop-opacity="1" stop-color="rgb(42.9245%, 40.765381%, 60.116577%)" offset="0.679688"/><stop stop-opacity="1" stop-color="rgb(45.106506%, 43.029785%, 61.64093%)" offset="0.683594"/><stop stop-opacity="1" stop-color="rgb(47.288513%, 45.295715%, 63.166809%)" offset="0.6875"/><stop stop-opacity="1" stop-color="rgb(49.47052%, 47.561646%, 64.691162%)" offset="0.691406"/><stop stop-opacity="1" stop-color="rgb(51.654053%, 49.827576%, 66.217041%)" offset="0.695312"/><stop stop-opacity="1" stop-color="rgb(53.83606%, 52.09198%, 67.741394%)" offset="0.699219"/><stop stop-opacity="1" stop-color="rgb(56.019592%, 54.35791%, 69.267273%)" offset="0.703125"/><stop stop-opacity="1" stop-color="rgb(58.201599%, 56.622314%, 70.791626%)" offset="0.707031"/><stop stop-opacity="1" stop-color="rgb(60.385132%, 58.888245%, 72.317505%)" offset="0.710938"/><stop stop-opacity="1" stop-color="rgb(62.567139%, 61.152649%, 73.841858%)" offset="0.714844"/><stop stop-opacity="1" stop-color="rgb(64.750671%, 63.418579%, 75.367737%)" offset="0.71875"/><stop stop-opacity="1" stop-color="rgb(66.932678%, 65.682983%, 76.893616%)" offset="0.722656"/><stop stop-opacity="1" stop-color="rgb(69.116211%, 67.948914%, 78.419495%)" offset="0.726562"/><stop stop-opacity="1" stop-color="rgb(71.298218%, 70.213318%, 79.943848%)" offset="0.730469"/><stop stop-opacity="1" stop-color="rgb(73.48175%, 72.479248%, 81.469727%)" offset="0.734375"/><stop stop-opacity="1" stop-color="rgb(75.663757%, 74.743652%, 82.99408%)" offset="0.738281"/><stop stop-opacity="1" stop-color="rgb(77.84729%, 77.009583%, 84.519958%)" offset="0.742188"/><stop stop-opacity="1" stop-color="rgb(80.029297%, 79.273987%, 86.044312%)" offset="0.746094"/><stop stop-opacity="1" stop-color="rgb(82.21283%, 81.539917%, 87.57019%)" offset="0.75"/><stop stop-opacity="1" stop-color="rgb(84.394836%, 83.804321%, 89.094543%)" offset="0.753906"/><stop stop-opacity="1" stop-color="rgb(86.578369%, 86.070251%, 90.620422%)" offset="0.757812"/><stop stop-opacity="1" stop-color="rgb(88.760376%, 88.334656%, 92.144775%)" offset="0.761719"/><stop stop-opacity="1" stop-color="rgb(90.943909%, 90.600586%, 93.670654%)" offset="0.765625"/><stop stop-opacity="1" stop-color="rgb(93.125916%, 92.86499%, 95.195007%)" offset="0.769531"/><stop stop-opacity="1" stop-color="rgb(95.309448%, 95.13092%, 96.720886%)" offset="0.773438"/><stop stop-opacity="1" stop-color="rgb(97.491455%, 97.395325%, 98.246765%)" offset="0.777344"/><stop stop-opacity="1" stop-color="rgb(99.673462%, 99.661255%, 99.772644%)" offset="0.78125"/><stop stop-opacity="1" stop-color="rgb(98.118591%, 98.048401%, 98.686218%)" offset="0.785156"/><stop stop-opacity="1" stop-color="rgb(96.565247%, 96.435547%, 97.599792%)" offset="0.789062"/><stop stop-opacity="1" stop-color="rgb(94.709778%, 94.509888%, 96.302795%)" offset="0.792969"/><stop stop-opacity="1" stop-color="rgb(92.854309%, 92.584229%, 95.005798%)" offset="0.796875"/><stop stop-opacity="1" stop-color="rgb(90.99884%, 90.658569%, 93.708801%)" offset="0.800781"/><stop stop-opacity="1" stop-color="rgb(89.143372%, 88.73291%, 92.41333%)" offset="0.804688"/><stop stop-opacity="1" stop-color="rgb(87.287903%, 86.807251%, 91.116333%)" offset="0.808594"/><stop stop-opacity="1" stop-color="rgb(85.432434%, 84.883118%, 89.820862%)" offset="0.8125"/><stop stop-opacity="1" stop-color="rgb(83.576965%, 82.957458%, 88.523865%)" offset="0.816406"/><stop stop-opacity="1" stop-color="rgb(81.723022%, 81.031799%, 87.228394%)" offset="0.820312"/><stop stop-opacity="1" stop-color="rgb(79.867554%, 79.10614%, 85.931396%)" offset="0.824219"/><stop stop-opacity="1" stop-color="rgb(78.012085%, 77.180481%, 84.634399%)" offset="0.828125"/><stop stop-opacity="1" stop-color="rgb(76.156616%, 75.254822%, 83.337402%)" offset="0.832031"/><stop stop-opacity="1" stop-color="rgb(74.301147%, 73.329163%, 82.041931%)" offset="0.835938"/><stop stop-opacity="1" stop-color="rgb(72.445679%, 71.403503%, 80.744934%)" offset="0.839844"/><stop stop-opacity="1" stop-color="rgb(70.59021%, 69.47937%, 79.449463%)" offset="0.84375"/><stop stop-opacity="1" stop-color="rgb(68.734741%, 67.553711%, 78.152466%)" offset="0.847656"/><stop stop-opacity="1" stop-color="rgb(66.880798%, 65.628052%, 76.855469%)" offset="0.851562"/><stop stop-opacity="1" stop-color="rgb(65.02533%, 63.702393%, 75.558472%)" offset="0.855469"/><stop stop-opacity="1" stop-color="rgb(63.169861%, 61.776733%, 74.263%)" offset="0.859375"/><stop stop-opacity="1" stop-color="rgb(61.314392%, 59.851074%, 72.966003%)" offset="0.863281"/><stop stop-opacity="1" stop-color="rgb(59.458923%, 57.926941%, 71.670532%)" offset="0.867188"/><stop stop-opacity="1" stop-color="rgb(57.603455%, 56.001282%, 70.373535%)" offset="0.871094"/><stop stop-opacity="1" stop-color="rgb(55.747986%, 54.075623%, 69.078064%)" offset="0.875"/><stop stop-opacity="1" stop-color="rgb(53.892517%, 52.149963%, 67.781067%)" offset="0.878906"/><stop stop-opacity="1" stop-color="rgb(52.037048%, 50.224304%, 66.48407%)" offset="0.882812"/><stop stop-opacity="1" stop-color="rgb(50.18158%, 48.298645%, 65.187073%)" offset="0.886719"/><stop stop-opacity="1" stop-color="rgb(48.327637%, 46.372986%, 63.891602%)" offset="0.890625"/><stop stop-opacity="1" stop-color="rgb(46.472168%, 44.447327%, 62.594604%)" offset="0.894531"/><stop stop-opacity="1" stop-color="rgb(44.616699%, 42.523193%, 61.299133%)" offset="0.898438"/><stop stop-opacity="1" stop-color="rgb(42.76123%, 40.597534%, 60.002136%)" offset="0.902344"/><stop stop-opacity="1" stop-color="rgb(40.905762%, 38.671875%, 58.706665%)" offset="0.90625"/><stop stop-opacity="1" stop-color="rgb(39.050293%, 36.746216%, 57.409668%)" offset="0.910156"/><stop stop-opacity="1" stop-color="rgb(37.194824%, 34.820557%, 56.112671%)" offset="0.914063"/><stop stop-opacity="1" stop-color="rgb(35.339355%, 32.894897%, 54.815674%)" offset="0.917969"/><stop stop-opacity="1" stop-color="rgb(33.483887%, 30.970764%, 53.520203%)" offset="0.921875"/><stop stop-opacity="1" stop-color="rgb(31.628418%, 29.045105%, 52.223206%)" offset="0.925781"/><stop stop-opacity="1" stop-color="rgb(29.774475%, 27.119446%, 50.927734%)" offset="0.929688"/><stop stop-opacity="1" stop-color="rgb(27.919006%, 25.193787%, 49.630737%)" offset="0.933594"/><stop stop-opacity="1" stop-color="rgb(26.063538%, 23.268127%, 48.33374%)" offset="0.9375"/><stop stop-opacity="1" stop-color="rgb(24.208069%, 21.342468%, 47.036743%)" offset="0.941406"/><stop stop-opacity="1" stop-color="rgb(22.3526%, 19.416809%, 45.741272%)" offset="0.945312"/><stop stop-opacity="1" stop-color="rgb(20.497131%, 17.49115%, 44.444275%)" offset="0.949219"/><stop stop-opacity="1" stop-color="rgb(18.641663%, 15.567017%, 43.148804%)" offset="0.953125"/><stop stop-opacity="1" stop-color="rgb(18.319702%, 15.232849%, 42.922974%)" offset="0.957031"/><stop stop-opacity="1" stop-color="rgb(17.999268%, 14.898682%, 42.698669%)" offset="0.960938"/><stop stop-opacity="1" stop-color="rgb(17.999268%, 14.898682%, 42.698669%)" offset="0.96875"/><stop stop-opacity="1" stop-color="rgb(17.999268%, 14.898682%, 42.698669%)" offset="1"/></linearGradient><clipPath id="bd64b764b1"><path d="M 105.050781 70 L 200 70 L 200 218.523438 L 105.050781 218.523438 Z M 105.050781 70 " clip-rule="nonzero"/></clipPath><clipPath id="5a9b9e2787"><path d="M 159 148 L 267.078125 148 L 267.078125 218.523438 L 159 218.523438 Z M 159 148 " clip-rule="nonzero"/></clipPath><clipPath id="68df00c130"><path d="M 174 31.78125 L 234 31.78125 L 234 141 L 174 141 Z M 174 31.78125 " clip-rule="nonzero"/></clipPath><clipPath id="c97144c865"><path d="M 192 178 L 234 178 L 234 218.523438 L 192 218.523438 Z M 192 178 " clip-rule="nonzero"/></clipPath><clipPath id="be53e09a01"><path d="M 230.386719 148.332031 L 269.75 148.332031 L 269.75 170.300781 L 230.386719 170.300781 Z M 230.386719 148.332031 " clip-rule="nonzero"/></clipPath></defs><g clip-path="url(#620eabe672)"><g clip-path="url(#f96a61ffcd)"><g clip-path="url(#93efdbd0b9)"><g clip-path="url(#9ab787ae1a)"><path fill="url(#5125426984)" d="M 277.992188 -110.511719 L -70.152344 66.519531 L 110.105469 421.007812 L 458.25 243.976562 Z M 277.992188 -110.511719 " fill-rule="nonzero"/></g></g></g></g><g clip-path="url(#bd64b764b1)"><path fill="#ffffff" d="M 128.648438 218.378906 C 129.015625 218.089844 129.285156 217.667969 129.53125 217.097656 C 141.089844 190.285156 152.6875 163.484375 164.277344 136.6875 C 165.808594 133.140625 167.347656 129.597656 169.050781 125.675781 C 169.515625 126.429688 169.78125 126.773438 169.953125 127.160156 C 171.613281 130.910156 173.292969 134.65625 174.894531 138.433594 C 175.40625 139.644531 176.136719 140.144531 177.492188 140.132812 C 183.886719 140.078125 190.273438 140.128906 196.667969 140.113281 C 197.507812 140.113281 198.347656 139.980469 199.574219 139.878906 C 189.550781 116.679688 179.664062 93.796875 169.777344 70.910156 C 169.578125 70.863281 169.375 70.816406 169.179688 70.769531 C 147.828125 119.917969 126.472656 169.066406 105.050781 218.378906 Z M 128.648438 218.378906 " fill-opacity="1" fill-rule="nonzero"/></g><g clip-path="url(#5a9b9e2787)"><path fill="#ffffff" d="M 219.394531 169.71875 C 221.347656 169.707031 222.371094 170.273438 223.171875 172.144531 C 229.535156 187.070312 236.015625 201.9375 242.433594 216.84375 C 242.746094 217.570312 243.101562 218.078125 243.636719 218.378906 L 267.0625 218.378906 C 266.789062 217.652344 266.644531 217.238281 266.476562 216.832031 C 263.339844 209.535156 260.210938 202.238281 257.0625 194.945312 C 250.660156 180.113281 244.25 165.28125 237.855469 150.445312 C 237.351562 149.269531 236.839844 148.46875 235.261719 148.472656 C 213.53125 148.535156 191.800781 148.523438 170.066406 148.496094 C 168.816406 148.496094 168.152344 148.875 167.652344 150.085938 C 165.566406 155.121094 163.363281 160.109375 161.210938 165.125 C 160.59375 166.5625 160.003906 168.011719 159.277344 169.761719 C 160.617188 169.761719 161.546875 169.761719 162.480469 169.761719 C 181.449219 169.757812 200.417969 169.78125 219.394531 169.71875 Z M 219.394531 169.71875 " fill-opacity="1" fill-rule="nonzero"/></g><g clip-path="url(#68df00c130)"><path fill="#ffffff" d="M 233.546875 139.992188 C 231.910156 139.992188 230.851562 139.992188 229.792969 139.992188 C 223.671875 139.992188 217.550781 139.941406 211.429688 140.027344 C 209.847656 140.046875 209.046875 139.515625 208.421875 138.066406 C 199.179688 116.691406 189.882812 95.34375 180.601562 73.988281 C 178.667969 69.542969 176.707031 65.109375 174.839844 60.640625 C 174.566406 59.984375 174.488281 59.03125 174.753906 58.40625 C 178.335938 49.980469 181.988281 41.589844 185.640625 33.195312 C 185.808594 32.800781 186.167969 32.488281 186.601562 31.917969 C 202.242188 67.925781 217.777344 103.699219 233.546875 139.992188 Z M 233.546875 139.992188 " fill-opacity="1" fill-rule="nonzero"/></g><g clip-path="url(#c97144c865)"><path fill="#ffffff" d="M 209.4375 217.34375 C 209.648438 217.832031 209.898438 218.152344 210.195312 218.378906 L 233.550781 218.378906 C 233.410156 217.964844 233.324219 217.683594 233.214844 217.429688 C 227.753906 204.769531 222.304688 192.101562 216.765625 179.476562 C 216.492188 178.859375 215.359375 178.277344 214.617188 178.265625 C 208.703125 178.164062 202.78125 178.210938 196.859375 178.210938 C 195.535156 178.210938 194.207031 178.210938 192.625 178.210938 C 192.800781 178.914062 192.832031 179.179688 192.941406 179.417969 C 198.441406 192.054688 203.972656 204.683594 209.4375 217.34375 Z M 209.4375 217.34375 " fill-opacity="1" fill-rule="nonzero"/></g><g clip-path="url(#be53e09a01)"><path fill="#ffffff" d="M 269.34375 163.722656 C 269.214844 163.914062 269.046875 164.117188 268.890625 164.285156 C 268.925781 164.625 268.921875 164.984375 268.785156 165.296875 C 268.605469 165.714844 268.207031 166.023438 268.082031 166.460938 C 268.046875 166.589844 268.046875 166.71875 268.109375 166.835938 C 268.03125 166.785156 267.933594 166.78125 267.847656 166.808594 C 267.757812 166.835938 267.648438 166.859375 267.574219 166.914062 C 267.382812 167.050781 267.230469 167.222656 267.054688 167.378906 C 266.898438 167.515625 266.746094 167.660156 266.558594 167.746094 C 266.335938 167.851562 266.078125 167.859375 265.835938 167.871094 C 265.796875 168.105469 265.726562 168.328125 265.621094 168.539062 C 265.582031 168.613281 265.542969 168.691406 265.476562 168.742188 C 265.414062 168.796875 265.335938 168.824219 265.253906 168.847656 C 264.863281 168.949219 264.429688 168.882812 264.089844 168.664062 C 263.875 168.839844 263.605469 169.046875 263.335938 169.097656 C 263.117188 169.140625 262.890625 169.097656 262.671875 169.140625 C 262.414062 169.191406 262.1875 169.390625 262.078125 169.636719 C 261.988281 169.476562 261.804688 169.394531 261.625 169.382812 C 261.445312 169.375 261.269531 169.421875 261.097656 169.472656 C 260.925781 169.519531 260.75 169.574219 260.570312 169.570312 C 260.445312 169.566406 260.320312 169.539062 260.199219 169.507812 C 260.0625 169.472656 259.929688 169.441406 259.796875 169.40625 C 259.734375 169.609375 259.546875 169.78125 259.367188 169.886719 C 259.257812 169.949219 259.144531 169.996094 259.023438 170.011719 C 258.816406 170.039062 258.605469 169.964844 258.433594 169.84375 C 258.261719 169.726562 258.121094 169.570312 257.980469 169.414062 L 257.980469 169.40625 C 257.585938 169.679688 257.054688 169.738281 256.613281 169.554688 C 256.527344 169.523438 256.441406 169.476562 256.347656 169.484375 C 256.273438 169.488281 256.207031 169.527344 256.140625 169.5625 C 256.03125 169.625 255.921875 169.6875 255.8125 169.75 C 255.699219 169.550781 255.472656 169.476562 255.246094 169.445312 C 255.019531 169.410156 254.789062 169.429688 254.5625 169.402344 C 254.253906 169.363281 253.960938 169.230469 253.726562 169.023438 C 253.585938 169.1875 253.398438 169.289062 253.199219 169.363281 C 253.046875 169.417969 252.882812 169.449219 252.722656 169.417969 C 252.550781 169.382812 252.402344 169.277344 252.285156 169.148438 C 252.167969 169.015625 252.085938 168.832031 252.011719 168.671875 C 251.476562 168.855469 250.847656 168.75 250.394531 168.40625 C 250.335938 168.398438 250.273438 168.410156 250.214844 168.433594 C 250.1875 168.445312 250.160156 168.464844 250.140625 168.488281 C 250.113281 168.527344 250.105469 168.582031 250.066406 168.617188 C 250.03125 168.582031 250.023438 168.527344 249.996094 168.488281 C 249.976562 168.460938 249.949219 168.445312 249.921875 168.433594 C 249.863281 168.410156 249.800781 168.398438 249.742188 168.40625 C 249.289062 168.75 248.660156 168.855469 248.125 168.671875 C 248.050781 168.832031 247.96875 169.015625 247.851562 169.148438 C 247.734375 169.277344 247.585938 169.382812 247.414062 169.417969 C 247.253906 169.449219 247.089844 169.417969 246.9375 169.363281 C 246.734375 169.289062 246.550781 169.1875 246.410156 169.023438 C 246.175781 169.230469 245.882812 169.363281 245.574219 169.402344 C 245.347656 169.429688 245.117188 169.410156 244.890625 169.445312 C 244.664062 169.476562 244.4375 169.550781 244.324219 169.75 C 244.214844 169.6875 244.105469 169.625 243.996094 169.5625 C 243.929688 169.527344 243.863281 169.488281 243.789062 169.484375 C 243.699219 169.476562 243.609375 169.519531 243.523438 169.554688 C 243.082031 169.738281 242.550781 169.679688 242.15625 169.40625 L 242.15625 169.410156 C 242.015625 169.566406 241.875 169.722656 241.703125 169.84375 C 241.53125 169.960938 241.320312 170.035156 241.113281 170.011719 C 240.992188 169.996094 240.878906 169.945312 240.769531 169.882812 C 240.589844 169.777344 240.402344 169.605469 240.339844 169.40625 C 240.207031 169.4375 240.074219 169.472656 239.9375 169.503906 C 239.816406 169.535156 239.691406 169.5625 239.566406 169.566406 C 239.386719 169.570312 239.210938 169.519531 239.039062 169.46875 C 238.867188 169.417969 238.691406 169.371094 238.511719 169.382812 C 238.332031 169.390625 238.148438 169.476562 238.058594 169.632812 C 237.949219 169.390625 237.722656 169.1875 237.464844 169.136719 C 237.246094 169.09375 237.019531 169.140625 236.800781 169.097656 C 236.53125 169.042969 236.261719 168.835938 236.046875 168.664062 C 235.707031 168.878906 235.273438 168.949219 234.882812 168.84375 C 234.804688 168.824219 234.722656 168.792969 234.660156 168.742188 C 234.59375 168.6875 234.554688 168.613281 234.515625 168.539062 C 234.414062 168.328125 234.339844 168.101562 234.300781 167.871094 C 234.058594 167.855469 233.800781 167.847656 233.578125 167.746094 C 233.390625 167.65625 233.238281 167.511719 233.082031 167.375 C 232.90625 167.21875 232.800781 167.058594 232.605469 166.925781 C 232.53125 166.871094 232.378906 166.832031 232.289062 166.804688 C 232.203125 166.78125 232.105469 166.78125 232.027344 166.832031 C 232.089844 166.714844 232.078125 166.589844 232.039062 166.460938 C 231.917969 166.019531 231.519531 165.714844 231.335938 165.296875 C 231.203125 164.980469 231.199219 164.625 231.234375 164.28125 C 231.078125 164.113281 230.910156 163.910156 230.78125 163.71875 C 230.699219 163.597656 230.617188 163.464844 230.609375 163.316406 C 230.601562 163.132812 230.699219 162.964844 230.816406 162.824219 C 230.945312 162.664062 231.097656 162.523438 231.269531 162.410156 C 231.328125 162.371094 231.390625 162.332031 231.4375 162.28125 C 231.484375 162.230469 231.515625 162.160156 231.507812 162.089844 C 231.457031 161.710938 231.5625 161.265625 231.796875 160.96875 C 231.90625 160.828125 232.039062 160.710938 232.132812 160.566406 C 232.257812 160.382812 232.320312 160.148438 232.265625 159.929688 C 232.242188 159.835938 232.203125 159.75 232.175781 159.65625 C 232.117188 159.441406 232.152344 159.210938 232.1875 158.988281 C 232.3125 158.84375 232.335938 158.59375 232.269531 158.414062 C 232.207031 158.234375 232.082031 158.082031 231.96875 157.929688 C 231.804688 157.710938 231.65625 157.480469 231.554688 157.226562 C 231.457031 156.972656 231.40625 156.695312 231.445312 156.425781 C 231.277344 156.347656 231.113281 156.222656 230.984375 156.089844 C 230.851562 155.957031 230.75 155.789062 230.714844 155.601562 C 230.667969 155.375 230.71875 155.136719 230.832031 154.933594 C 230.941406 154.730469 231.113281 154.558594 231.296875 154.421875 C 231.203125 154.046875 231.175781 153.640625 231.34375 153.296875 C 231.425781 153.125 231.550781 152.984375 231.675781 152.839844 C 231.796875 152.695312 231.917969 152.550781 231.996094 152.378906 C 232.070312 152.207031 232.105469 151.960938 232.03125 151.789062 C 232.105469 151.839844 232.207031 151.84375 232.292969 151.816406 C 232.378906 151.792969 232.457031 151.738281 232.53125 151.6875 C 232.722656 151.550781 232.90625 151.402344 233.082031 151.246094 C 233.238281 151.109375 233.394531 150.964844 233.582031 150.878906 C 233.804688 150.773438 234.058594 150.765625 234.304688 150.753906 C 234.339844 150.523438 234.414062 150.296875 234.515625 150.085938 C 234.554688 150.011719 234.597656 149.9375 234.660156 149.882812 C 234.722656 149.828125 234.804688 149.800781 234.882812 149.777344 C 235.273438 149.675781 235.707031 149.742188 236.046875 149.960938 C 236.261719 149.785156 236.535156 149.578125 236.804688 149.527344 C 237.019531 149.484375 237.246094 149.527344 237.464844 149.484375 C 237.726562 149.433594 237.949219 149.234375 238.058594 148.992188 C 238.148438 149.148438 238.335938 149.230469 238.515625 149.242188 C 238.691406 149.253906 238.871094 149.203125 239.042969 149.152344 C 239.214844 149.105469 239.390625 149.050781 239.570312 149.054688 C 239.695312 149.058594 239.816406 149.089844 239.941406 149.121094 C 240.074219 149.152344 240.207031 149.1875 240.34375 149.21875 C 240.40625 149.019531 240.589844 148.84375 240.773438 148.738281 C 240.878906 148.679688 240.992188 148.628906 241.117188 148.613281 C 241.320312 148.585938 241.53125 148.660156 241.703125 148.78125 C 241.875 148.898438 242.019531 149.054688 242.160156 149.210938 L 242.160156 149.21875 C 242.550781 148.945312 243.082031 148.886719 243.523438 149.066406 C 243.609375 149.101562 243.699219 149.144531 243.792969 149.140625 C 243.867188 149.132812 243.933594 149.097656 243.996094 149.058594 C 244.105469 148.996094 244.214844 148.933594 244.324219 148.871094 C 244.441406 149.070312 244.667969 149.144531 244.890625 149.179688 C 245.117188 149.210938 245.347656 149.191406 245.574219 149.222656 C 245.882812 149.261719 246.179688 149.394531 246.414062 149.597656 C 246.550781 149.433594 246.738281 149.332031 246.9375 149.261719 C 247.089844 149.207031 247.257812 149.175781 247.414062 149.207031 C 247.585938 149.238281 247.738281 149.34375 247.855469 149.476562 C 247.96875 149.605469 248.054688 149.789062 248.125 149.949219 C 248.660156 149.769531 249.289062 149.875 249.742188 150.21875 C 249.804688 150.222656 249.867188 150.214844 249.921875 150.1875 C 249.949219 150.175781 249.976562 150.160156 249.996094 150.136719 C 250.027344 150.097656 250.03125 150.039062 250.070312 150.007812 C 250.105469 150.039062 250.113281 150.097656 250.144531 150.136719 C 250.164062 150.160156 250.191406 150.175781 250.21875 150.1875 C 250.273438 150.214844 250.335938 150.222656 250.398438 150.21875 C 250.851562 149.875 251.480469 149.769531 252.015625 149.949219 C 252.085938 149.789062 252.171875 149.605469 252.285156 149.476562 C 252.402344 149.34375 252.554688 149.242188 252.722656 149.207031 C 252.882812 149.175781 253.046875 149.207031 253.199219 149.261719 C 253.402344 149.332031 253.585938 149.433594 253.726562 149.597656 C 253.960938 149.394531 254.257812 149.261719 254.566406 149.222656 C 254.789062 149.191406 255.023438 149.210938 255.246094 149.179688 C 255.472656 149.144531 255.699219 149.070312 255.816406 148.871094 C 255.925781 148.933594 256.035156 148.996094 256.144531 149.058594 C 256.207031 149.097656 256.273438 149.132812 256.347656 149.140625 C 256.441406 149.144531 256.527344 149.101562 256.613281 149.066406 C 257.058594 148.882812 257.589844 148.945312 257.980469 149.21875 L 257.980469 149.214844 C 258.121094 149.058594 258.261719 148.902344 258.4375 148.785156 C 258.609375 148.664062 258.816406 148.589844 259.023438 148.617188 C 259.144531 148.632812 259.261719 148.679688 259.367188 148.742188 C 259.546875 148.847656 259.734375 149.019531 259.796875 149.222656 C 259.929688 149.1875 260.066406 149.15625 260.199219 149.121094 C 260.320312 149.09375 260.445312 149.0625 260.570312 149.058594 C 260.75 149.054688 260.925781 149.105469 261.097656 149.15625 C 261.269531 149.207031 261.445312 149.253906 261.625 149.246094 C 261.804688 149.234375 261.988281 149.152344 262.078125 148.992188 C 262.191406 149.238281 262.414062 149.4375 262.675781 149.488281 C 262.890625 149.53125 263.121094 149.488281 263.335938 149.53125 C 263.605469 149.582031 263.878906 149.789062 264.089844 149.964844 C 264.433594 149.746094 264.867188 149.679688 265.253906 149.78125 C 265.335938 149.800781 265.414062 149.832031 265.480469 149.886719 C 265.542969 149.9375 265.585938 150.011719 265.621094 150.089844 C 265.726562 150.296875 265.796875 150.523438 265.835938 150.757812 C 266.082031 150.769531 266.335938 150.777344 266.558594 150.882812 C 266.746094 150.96875 266.898438 151.113281 267.058594 151.25 C 267.234375 151.40625 267.382812 151.578125 267.574219 151.714844 C 267.652344 151.769531 267.761719 151.792969 267.847656 151.820312 C 267.933594 151.847656 268.035156 151.84375 268.109375 151.792969 C 268.035156 151.964844 268.054688 152.207031 268.132812 152.378906 C 268.207031 152.550781 268.332031 152.699219 268.453125 152.84375 C 268.574219 152.984375 268.699219 153.128906 268.78125 153.296875 C 268.949219 153.640625 268.921875 154.050781 268.832031 154.425781 C 269.015625 154.5625 269.183594 154.734375 269.296875 154.9375 C 269.40625 155.136719 269.460938 155.378906 269.414062 155.605469 C 269.375 155.789062 269.273438 155.957031 269.144531 156.09375 C 269.011719 156.226562 268.847656 156.347656 268.679688 156.429688 C 268.722656 156.699219 268.671875 156.976562 268.570312 157.230469 C 268.472656 157.484375 268.320312 157.714844 268.160156 157.933594 C 268.042969 158.085938 267.921875 158.238281 267.855469 158.417969 C 267.792969 158.597656 267.816406 158.847656 267.941406 158.992188 C 267.976562 159.214844 268.007812 159.445312 267.949219 159.660156 C 267.925781 159.753906 267.882812 159.839844 267.859375 159.933594 C 267.808594 160.148438 267.867188 160.382812 267.992188 160.570312 C 268.089844 160.714844 268.222656 160.832031 268.328125 160.96875 C 268.566406 161.269531 268.671875 161.714844 268.617188 162.09375 C 268.609375 162.164062 268.644531 162.234375 268.691406 162.285156 C 268.738281 162.335938 268.796875 162.371094 268.855469 162.410156 C 269.027344 162.527344 269.179688 162.667969 269.3125 162.828125 C 269.425781 162.96875 269.527344 163.136719 269.515625 163.320312 C 269.503906 163.46875 269.425781 163.601562 269.34375 163.722656 Z M 269.34375 163.722656 " fill-opacity="1" fill-rule="nonzero"/><path fill="#ffffff" d="M 230.386719 148.34375 L 269.75 148.34375 L 269.75 170.289062 L 230.386719 170.289062 Z M 230.386719 148.34375 " fill-opacity="1" fill-rule="nonzero"/></g><g fill="#ffffff" fill-opacity="1"><g transform="translate(21.131602, 331.716311)"><g><path d="M 20.972656 0 L 27.335938 0 L 16.425781 -26.988281 L 10.910156 -26.988281 L 0.308594 0 L 6.515625 0 L 8.367188 -5.089844 L 19.085938 -5.089844 Z M 13.726562 -19.855469 L 17.273438 -10.179688 L 10.179688 -10.179688 Z M 13.726562 -19.855469 "/></g></g></g><g fill="#ffffff" fill-opacity="1"><g transform="translate(73.675921, 331.716311)"><g><path d="M 21.667969 -26.988281 L 0.808594 -26.988281 L 0.808594 -21.554688 L 8.328125 -21.554688 L 8.328125 0 L 14.148438 0 L 14.148438 -21.554688 L 21.667969 -21.554688 Z M 21.667969 -26.988281 "/></g></g></g><g fill="#ffffff" fill-opacity="1"><g transform="translate(121.055426, 331.716311)"><g><path d="M 21.667969 -26.988281 L 0.808594 -26.988281 L 0.808594 -21.554688 L 8.328125 -21.554688 L 8.328125 0 L 14.148438 0 L 14.148438 -21.554688 L 21.667969 -21.554688 Z M 21.667969 -26.988281 "/></g></g></g><g fill="#ffffff" fill-opacity="1"><g transform="translate(168.434923, 331.716311)"><g><path d="M 8.90625 -5.398438 L 8.90625 -10.949219 L 18.277344 -10.949219 L 18.277344 -16.230469 L 8.90625 -16.230469 L 8.90625 -21.589844 L 19.277344 -21.589844 L 19.277344 -26.988281 L 3.085938 -26.988281 L 3.085938 0 L 19.703125 0 L 19.703125 -5.398438 Z M 8.90625 -5.398438 "/></g></g></g><g fill="#ffffff" fill-opacity="1"><g transform="translate(214.850847, 331.716311)"><g><path d="M 20.164062 -26.988281 L 20.164062 -10.527344 L 8.328125 -26.988281 L 3.085938 -26.988281 L 3.085938 0 L 8.789062 0 L 8.789062 -16.847656 L 21.011719 0 L 25.910156 0 L 25.910156 -26.988281 Z M 20.164062 -26.988281 "/></g></g></g><g fill="#ffffff" fill-opacity="1"><g transform="translate(268.705642, 331.716311)"><g><path d="M 13.261719 -26.988281 L 3.085938 -26.988281 L 3.085938 0 L 13.261719 0 C 21.207031 0 26.949219 -5.667969 26.949219 -13.496094 C 26.949219 -21.320312 21.207031 -26.988281 13.261719 -26.988281 Z M 13.148438 -5.398438 L 8.90625 -5.398438 L 8.90625 -21.554688 L 13.148438 -21.554688 C 17.773438 -21.554688 20.972656 -18.277344 20.972656 -13.496094 C 20.972656 -8.789062 17.773438 -5.398438 13.148438 -5.398438 Z M 13.148438 -5.398438 "/></g></g></g><g fill="#ffffff" fill-opacity="1"><g transform="translate(322.13647, 331.716311)"><g><path d="M 15.886719 0.617188 C 24.097656 0.617188 30.226562 -5.4375 30.226562 -13.496094 C 30.226562 -21.515625 24.097656 -27.566406 15.886719 -27.566406 C 7.632812 -27.566406 1.464844 -21.476562 1.464844 -13.496094 C 1.464844 -5.476562 7.632812 0.617188 15.886719 0.617188 Z M 15.886719 -4.898438 C 11.066406 -4.898438 7.402344 -8.636719 7.402344 -13.496094 C 7.402344 -18.351562 11.066406 -22.054688 15.886719 -22.054688 C 20.703125 -22.054688 24.289062 -18.390625 24.289062 -13.496094 C 24.289062 -8.597656 20.703125 -4.898438 15.886719 -4.898438 Z M 15.886719 -4.898438 "/></g></g></g></svg>