<svg viewBox="0 0 32 32" xmlns="http://www.w3.org/2000/svg"><path d="m16 3c-1.644531 0-3 1.355469-3 3 0 1.125.632813 2.113281 1.5625 2.625l-2.9375 5.875-4.59375-3.28125c.601563-.550781.96875-1.347656.96875-2.21875 0-1.644531-1.355469-3-3-3s-3 1.355469-3 3c0 1.347656.925781 2.46875 2.15625 2.84375l1.84375 10.15625v5h20v-5l1.84375-10.15625c1.230469-.375 2.15625-1.496094 2.15625-2.84375 0-1.644531-1.355469-3-3-3s-3 1.355469-3 3c0 .871094.367188 1.667969.96875 2.21875l-4.59375 3.28125-2.9375-5.875c.929688-.511719 1.5625-1.5 1.5625-2.625 0-1.644531-1.355469-3-3-3zm0 2c.5625 0 1 .4375 1 1s-.4375 1-1 1-1-.4375-1-1 .4375-1 1-1zm-11 3c.5625 0 1 .4375 1 1s-.4375 1-1 1-1-.4375-1-1 .4375-1 1-1zm22 0c.5625 0 1 .4375 1 1s-.4375 1-1 1-1-.4375-1-1 .4375-1 1-1zm-11 2.25 3.09375 6.1875 1.5.375 5-3.5625-1.40625 7.75h-16.375l-1.40625-7.75 5 3.5625 1.5-.375zm-8 12.75h16v2h-16z"/></svg>